<?xml version="1.0" encoding="utf-8"?>
<svg x="0px" y="0px" xmlns="http://www.w3.org/2000/svg" xml:space="preserve">
	<defs>
		<symbol id="expand" viewBox="0 0 32 32">
			<path style="fill: var(--main-svg-color)" fill="white" d="M12,0 h8 v32 h-8 v-32 M0,12 v8 h12 v-8 h-12 M20,12 v8 h12 v-8 h-12"></path>
		</symbol>
		<symbol id="collapse" viewBox="0 0 32 32">
			<path style="stroke: var(--main-svg-color)" stroke="white" stroke-width="8" d="M0,16 h32"></path>
		</symbol>
		<symbol id="print" viewBox="0 0 80 80">
			<title id="print-svg-title">Printer</title>
			<desc id="print-svg-desc">Printer view from front</desc>
			<circle style="stroke: var(--button-color); fill: var(--fill-color)" cx="12" cy="40" r="3" stroke-width="4"></circle>
			<path style="stroke: var(--main-svg-color);	fill: var(--fill-color)" stroke-width="4" d="M20,5 h40 v20 h-40 v-20 z"></path>
			<path style="stroke: var(--main-svg-color);	fill: var(--fill-color)" stroke-width="5" stroke-linejoin="round" d="M2.5,25 h75 v30 h-19.5 M22,55 h-19.5 v-30 h40 M22,55 z"></path>
			<path style="stroke: var(--main-svg-color);	fill: var(--fill-color)" stroke-width="4" d="M25,45 h30 L65,75 h-50 L25,45 z"></path>
			<path style="stroke: var(--main-svg-color);	fill: var(--fill-color)" stroke-width="2" d="M24,68 h32 M26,62 h28 M28,56 h24 z"></path>
			<path style="stroke: var(--main-svg-color);	fill: var(--fill-color)" stroke-width="2" d="M24,68 h32 M26,62 h28 M28,56 h24" ></path>
		</symbol>
		<symbol id="gear" viewBox="0 0 64 64">
			<title id="gear-svg-title">Gear</title>
			<desc id="gear-svg-desc">A gear with eight teeth</desc>
			<path style="stroke: var(--main-svg-color); fill: var(--main-svg-color)" fill="#015249" stroke-width="2" d="M15.74,24.22 L9.3726,15.03 L15.03,9.3726 L24.22,15.74 L26,15 L28,4 L36,4 L38,15 L39.778,15.7365 L48.97,9.3726 L54.6274,15.03 L48.2635,24.22 L49,26 L60,28 L60,36 L49,38 L48.2635,39.778 L54.6274,48.97 L48.97,54.6274 L39.778,48.2635 L38,49 L36,60 L28,60 L26,49 L24.22,48.2635 L15.03,54.6274 L9.3726,48.97 L15.7365,39.778 L15,38 L4,36 L4,28 L15,26 L15.74,24.22 M19,32 a 13,13 0 1,0 26,0 a 13,13 0 1,0 -26,0"></path>

		</symbol>
	</defs>
</svg>

			
			
