<?xml version="1.0" encoding="utf-8"?>
<svg x="0px" y="0px" viewBox="0 0 64 64" enable-background="new 0 0 64 64" xmlns="http://www.w3.org/2000/svg" xml:space="preserve">
<style type="text/css">
	.st1{fill:black;}
</style>
<g>
	<circle cx="32" cy="32" r="16" stroke="black" stroke-width="8" fill="none"/>
	<path class="st1" d="M28,4 L26,15 L38,15 L36,4 L28,4 M4,28 L15,26 L15,38 L4,36 L4,28 M60,28 L49,26 L49,38 L60,36 L60,28 M28,60 L26,49 L38,49 L36,60 L28,60"/>
	
	<path class="st1" d="M15.03,9.3726 L24.22,15.74 L15.74,24.22 L9.3726,15.03 L15.03,9.3726 M54.6274,48.97 L48.2635,39.778 L39.778,48.2635 L48.97,54.6274 L54.6274,48.97 M48.97,9.3726 L39.778,15.7365 L48.2635,24.22 L54.6274,15.03 L48.97,9.3726 M9.3726,48.97 L15.7365,39.778 L24.22,48.2635 L15.03,54.6274 L9.3726,48.97"/>
</g>
</svg>
